<svg width="20" height="20" viewBox="0 0 20 20" fill="none" xmlns="http://www.w3.org/2000/svg">
<g clip-path="url(#clip0_8_109)">
<mask id="mask0_8_109" style="mask-type:luminance" maskUnits="userSpaceOnUse" x="0" y="0" width="20" height="20">
<path d="M20 0H0V20H20V0Z" fill="white"/>
</mask>
<g mask="url(#mask0_8_109)">
<path fill-rule="evenodd" clip-rule="evenodd" d="M8.82293 2.84344C8.08393 2.08126 7.54993 1.67817 6.91681 1.59352C6.78326 1.57567 6.6485 1.56861 6.51382 1.57241C5.59247 1.59842 4.80699 2.30544 3.23604 3.7195C1.20317 5.54936 0.186731 6.46428 0.028622 7.64612C0.0055105 7.81891 -0.00362908 7.99327 0.00129239 8.16748C0.0102523 8.48469 0.0816493 8.78941 0.216116 9.10419C0.314422 9.27927 0.420263 9.39034 0.525719 9.44762C0.677349 9.52998 1.22051 9.68048 2.54821 8.48334C3.24368 7.85627 4.88975 6.37733 6.67332 4.77488L6.67404 4.77423C7.38564 4.13487 8.11914 3.47585 8.82293 2.84344ZM1.25261 10.7106C1.38404 10.8808 1.49281 11.0148 1.53646 11.0571L1.55229 11.0433L1.53626 11.0577L4.93739 14.8646C7.03136 17.2084 8.07836 18.3803 9.458 18.4601C10.8376 18.5398 12.0126 17.4963 14.3629 15.4093L17.2662 12.831C19.0494 11.2476 19.9409 10.4558 19.9972 9.41219C20.0536 8.36855 19.2524 7.48548 17.6502 5.71942L17.6501 5.7194L16.4391 4.38449C14.8586 2.6425 14.0685 1.77152 13.0351 1.71847C12.2776 1.67959 11.6051 2.09137 10.6103 2.93291C9.63721 3.80761 8.55 4.78441 7.51014 5.71869L7.50964 5.71914C5.72727 7.32055 4.08399 8.79691 3.39288 9.42012C2.60604 10.1296 1.89216 10.5618 1.25261 10.7106Z" fill="#4779FF"/>
</g>
</g>
<defs>
<clipPath id="clip0_8_109">
<rect width="20" height="20" fill="white"/>
</clipPath>
</defs>
</svg>
